<svg width="44" height="44" viewBox="0 0 44 44" fill="none" xmlns="http://www.w3.org/2000/svg">
<rect width="44" height="44" rx="11" fill="#FCD7C5"/>
<path d="M24.8792 16.1208L24.0738 16.9262C23.9128 17.1275 23.9128 17.4094 24.1141 17.6107L27.3356 20.7114H13.4832C13.2013 20.7114 13 20.953 13 21.1946V22.3221C13 22.604 13.2013 22.8054 13.4832 22.8054H27.3356L24.1141 25.9463C23.9128 26.1477 23.9128 26.4295 24.0738 26.6309L24.8792 27.4362C25.0805 27.5973 25.3624 27.5973 25.5638 27.4362L30.8792 22.1208C31.0403 21.9195 31.0403 21.6376 30.8792 21.4362L25.5638 16.1208C25.3624 15.9597 25.0805 15.9597 24.8792 16.1208Z" fill="black"/>
</svg>
