<svg width="13" height="16" viewBox="0 0 13 16" fill="none" xmlns="http://www.w3.org/2000/svg">
<path d="M8.29761 2.88814H4.67129C4.06258 2.88814 3.54354 3.2783 3.35045 3.82158C3.37598 3.82114 3.40154 3.82061 3.4272 3.82061H9.54167C9.56733 3.82061 9.59286 3.82114 9.61842 3.82158C9.42536 3.27833 8.90633 2.88814 8.29761 2.88814Z" fill="white"/>
<path d="M11.1769 12.2331V12.7303C11.1769 13.5314 10.5276 14.1807 9.72653 14.1807H9.21466C9.225 14.128 9.23056 14.0737 9.23056 14.018V12.5509H8.76375C7.69288 12.5509 6.78472 11.8412 6.48497 10.8673C6.24166 11.6579 5.59738 12.2744 4.79057 12.4785L5.47948 12.9508C5.78023 13.1571 6.13254 13.2602 6.48494 13.2602C6.68401 13.2602 6.88313 13.2272 7.07294 13.1613V14.018C7.07294 14.0963 7.08391 14.1721 7.104 14.2441C6.76951 14.3735 6.52482 14.6882 6.51451 15.0648C6.50041 15.5789 6.91291 16 7.42382 16H9.72653C11.5323 16 12.9962 14.5362 12.9962 12.7303V10.8517C12.526 11.4595 11.8993 11.9402 11.1769 12.2331Z" fill="white"/>
<path d="M12.996 0.675217C12.996 0.302281 12.6937 0 12.3208 0H11.8519C11.479 0 11.1767 0.302281 11.1767 0.675217V1.32493H12.996L12.996 0.675217Z" fill="white"/>
<path d="M11.1766 2.26287V4.1384C11.899 4.43121 12.5257 4.91193 12.996 5.51977V2.26287H11.1766Z" fill="white"/>
<path d="M9.54161 4.75867H3.42715C1.53743 4.75867 0 6.29608 0 8.18582C0 10.0756 1.53743 11.613 3.42715 11.613H4.20562C5.00274 11.613 5.65121 10.9645 5.65121 10.1674C5.65121 9.88745 5.87893 9.65976 6.1588 9.65976H6.80989C7.08977 9.65976 7.31749 9.88748 7.31749 10.1674C7.31749 10.9645 7.96595 11.613 8.76308 11.613H9.54154C11.4313 11.613 12.9687 10.0756 12.9687 8.18582C12.9687 6.29608 11.4313 4.75867 9.54161 4.75867Z" fill="white"/>
</svg>
