<svg width="24" height="24" viewBox="0 0 24 24" fill="none" xmlns="http://www.w3.org/2000/svg">
<path d="M13.6602 17.5234C13.2734 17.5938 12.8867 17.5938 12.5 17.5938C10.6367 17.5938 8.91406 17.1719 7.33203 16.2578C5.71484 15.3438 4.48438 14.1133 3.57031 12.5312C3.42969 12.3555 3.42969 12.1797 3.57031 11.9688C4.41406 10.5625 5.53906 9.40234 6.98047 8.48828L6.3125 7.57422C4.76562 8.55859 3.53516 9.85938 2.62109 11.4062C2.44531 11.6875 2.375 11.9688 2.375 12.25C2.375 12.5664 2.44531 12.8477 2.62109 13.0938C3.60547 14.8164 4.97656 16.1875 6.73438 17.1719C8.49219 18.2266 10.3906 18.7188 12.5 18.7188C13.1328 18.7188 13.8008 18.6836 14.4336 18.543L13.6602 17.5234ZM7.36719 9.01562L8.17578 10.1055C8.03516 10.4922 8 10.8789 8 11.2656C8 12.0391 8.17578 12.7773 8.5625 13.4102C8.91406 14.043 9.44141 14.5703 10.1094 14.957C10.7422 15.3789 11.4805 15.5898 12.2539 15.625L13.0625 16.7148C12.8516 16.75 12.6758 16.75 12.5 16.75C11.4453 16.75 10.4961 16.5039 9.65234 16.0117C8.80859 15.5195 8.10547 14.8516 7.61328 14.0078C7.12109 13.1641 6.875 12.25 6.875 11.2656C6.875 10.4922 7.01562 9.75391 7.36719 9.01562ZM22.3789 13.0938C22.5195 12.8477 22.625 12.5664 22.625 12.25C22.625 11.9688 22.5195 11.6875 22.3789 11.4062C21.3594 9.71875 19.9883 8.34766 18.2656 7.32812C16.5078 6.30859 14.5742 5.78125 12.5 5.78125C11.2344 5.78125 10.0039 5.99219 8.84375 6.37891L6.66406 3.42578C6.59375 3.35547 6.48828 3.28516 6.38281 3.25C6.24219 3.25 6.13672 3.25 6.06641 3.32031L5.82031 3.49609C5.71484 3.56641 5.64453 3.67188 5.64453 3.77734C5.64453 3.91797 5.67969 4.02344 5.75 4.09375L18.3359 21.0742C18.4062 21.1797 18.4766 21.25 18.6172 21.25C18.7227 21.2852 18.8281 21.25 18.9336 21.1797L19.1797 21.0039C19.25 20.9336 19.3203 20.8633 19.3203 20.7227C19.3203 20.6172 19.3203 20.5117 19.25 20.4062L17.2461 17.6992C18.3008 17.207 19.2852 16.5742 20.1641 15.8008C21.043 15.0273 21.7812 14.1133 22.3789 13.0938ZM17 11.2656C17 12.0039 16.8242 12.6719 16.4727 13.3047C16.1211 13.9375 15.6641 14.4297 15.1016 14.8164L13.7656 12.9883C14.2227 12.6719 14.5391 12.2148 14.6797 11.6523C14.8203 11.0898 14.75 10.5625 14.4688 10.0703C14.4688 10.3516 14.3633 10.5625 14.1875 10.7383C14.0117 10.9141 13.8008 10.9844 13.5547 10.9844C13.2734 10.9844 13.0625 10.9141 12.8867 10.7383C12.7109 10.5625 12.6406 10.3516 12.6406 10.0703C12.6406 9.82422 12.7109 9.61328 12.8867 9.4375C13.0625 9.26172 13.2734 9.15625 13.5547 9.15625C13.1328 8.94531 12.7109 8.875 12.2891 8.91016C11.832 8.94531 11.4453 9.08594 11.0938 9.36719L9.86328 7.75C10.6367 7.1875 11.5156 6.90625 12.5 6.90625C13.3086 6.90625 14.0469 7.11719 14.75 7.50391C15.4531 7.89062 15.9805 8.41797 16.4023 9.08594C16.7891 9.75391 17 10.4922 17 11.2656ZM21.4297 11.9688C21.5352 12.1797 21.5352 12.3555 21.4297 12.5312C20.8672 13.5156 20.1641 14.3594 19.3203 15.0625C18.4766 15.7656 17.5625 16.3633 16.5781 16.7852L15.7695 15.7305C16.6133 15.1328 17.2461 14.3594 17.668 13.4453C18.0547 12.5312 18.1953 11.5469 18.0547 10.5625C17.9141 9.57812 17.5625 8.69922 16.9297 7.89062C17.8438 8.34766 18.7227 8.91016 19.4961 9.61328C20.2695 10.3164 20.9023 11.125 21.4297 11.9688Z" fill="#D3E7EF"/>
</svg>
