<svg width="16" height="16" viewBox="0 0 16 16" fill="none" xmlns="http://www.w3.org/2000/svg">
<path d="M7.99828 4.93719C9.36165 4.93719 10.4669 3.83196 10.4669 2.4686C10.4669 1.10523 9.36165 0 7.99828 0C6.63491 0 5.52969 1.10523 5.52969 2.4686C5.52969 3.83196 6.63491 4.93719 7.99828 4.93719Z" fill="white"/>
<path d="M7.32182 8.81204C5.33773 7.74661 3.00872 7.07631 0.50925 6.85942L0 6.81523V9.41757C1.60584 9.56472 3.18111 9.90313 4.65474 10.4089C5.49447 9.79301 6.38245 9.26164 7.32182 8.81204Z" fill="white"/>
<path d="M0 16H3.01919C4.32326 14.6591 5.79092 13.5491 7.39838 12.6882C5.27808 11.4353 2.68871 10.6174 0 10.359V16Z" fill="white"/>
<path d="M15.9958 16V11.4292C13.5156 11.5111 11.2083 12.0027 9.13571 12.8915C7.38216 13.6436 5.78005 14.687 4.36017 16H15.9958Z" fill="white"/>
<path d="M8.38829 12.1976C8.51353 12.1403 8.63946 12.0844 8.76623 12.03C10.9551 11.0912 13.3869 10.574 15.9958 10.4913V7.89032C11.8987 7.95594 8.52469 8.91263 5.71492 10.8088C6.66677 11.2017 7.56522 11.6669 8.38829 12.1976Z" fill="white"/>
</svg>
