<svg width="24" height="19" viewBox="0 0 24 19" fill="none" xmlns="http://www.w3.org/2000/svg">
<path d="M1.33331 0H22.6667C23.4027 0 24 0.559987 24 1.25C24 1.9375 23.4027 2.5 22.6667 2.5H1.33331C0.599994 2.5 -7.1292e-07 1.9375 -7.1292e-07 1.25C-7.1292e-07 0.559987 0.599994 0 1.33331 0Z" fill="#333333"/>
<path d="M1.33331 8H22.6667C23.4027 8 24 8.55999 24 9.25C24 9.9375 23.4027 10.5 22.6667 10.5H1.33331C0.599994 10.5 -7.1292e-07 9.9375 -7.1292e-07 9.25C-7.1292e-07 8.55999 0.599994 8 1.33331 8Z" fill="#333333"/>
<path d="M0.888876 16H15.1111C15.6018 16 16 16.56 16 17.25C16 17.9375 15.6018 18.5 15.1111 18.5H0.888876C0.399996 18.5 -4.7528e-07 17.9375 -4.7528e-07 17.25C-4.7528e-07 16.56 0.399996 16 0.888876 16Z" fill="#333333"/>
</svg>
