<svg width="24" height="19" viewBox="0 0 24 19" fill="none" xmlns="http://www.w3.org/2000/svg">
<path d="M1.33331 0H22.6667C23.4027 0 24 0.559987 24 1.25C24 1.9375 23.4027 2.5 22.6667 2.5H1.33331C0.599995 2.5 0 1.9375 0 1.25C0 0.559987 0.599995 0 1.33331 0Z" fill="white"/>
<path d="M1.33331 8H22.6667C23.4027 8 24 8.55999 24 9.25C24 9.9375 23.4027 10.5 22.6667 10.5H1.33331C0.599995 10.5 0 9.9375 0 9.25C0 8.55999 0.599995 8 1.33331 8Z" fill="white"/>
<path d="M0.888876 16H15.1111C15.6018 16 16 16.56 16 17.25C16 17.9375 15.6018 18.5 15.1111 18.5H0.888876C0.399996 18.5 0 17.9375 0 17.25C0 16.56 0.399996 16 0.888876 16Z" fill="white"/>
</svg>
