<svg width="64" height="64" viewBox="0 0 64 64" fill="none" xmlns="http://www.w3.org/2000/svg">
<path d="M54.4225 39.637C52.6304 39.3503 47.0279 38.4536 45.25 38.1691V35.9585C49.7704 33.986 52.75 29.4895 52.75 24.5001V19.3751H59C59.6903 19.3751 60.25 18.8154 60.25 18.1251V16.6926C60.25 13.6915 57.8085 11.25 54.8075 11.25H52.6878C52.0585 4.94212 46.7207 0 40.25 0C33.7793 0 28.4415 4.94212 27.8124 11.25H25.6925C22.6915 11.25 20.25 13.6915 20.25 16.6925V18.125C20.25 18.8153 20.8096 19.375 21.5 19.375H27.75V24.5C27.75 29.4896 30.7299 33.9862 35.25 35.9585V38.1691C33.3363 38.4754 28.0031 39.3289 26.0775 39.637C20.5681 40.519 16.5 45.2764 16.5 50.8688V62.75C16.5 63.4403 17.0596 64 17.75 64H62.75C63.4403 64 64 63.4403 64 62.75V50.8688C64 45.2892 59.9448 40.521 54.4225 39.637ZM40.25 2.5C45.3405 2.5 49.5516 6.32425 50.1691 11.25H30.3309C30.9484 6.32425 35.1595 2.5 40.25 2.5ZM30.25 24.5V19.375H34.7501C35.4404 19.375 36.0001 18.8153 36.0001 18.125C36.0001 17.4347 35.4404 16.875 34.7501 16.875C33.4616 16.875 24.2714 16.875 22.75 16.875V16.6925C22.75 15.07 24.07 13.75 25.6925 13.75H54.8075C56.43 13.75 57.75 15.07 57.75 16.6925V16.875C56.5443 16.875 47.316 16.875 46.0001 16.875C45.3099 16.875 44.7501 17.4347 44.7501 18.125C44.7501 18.8153 45.3099 19.375 46.0001 19.375H50.25V24.5C50.25 29.9645 45.8266 34.5 40.25 34.5C34.6738 34.5 30.25 29.9649 30.25 24.5ZM36.6975 40.4692C37.304 40.3722 37.75 39.8491 37.75 39.235V36.748C38.568 36.9141 39.4036 37 40.25 37C41.0964 37 41.9321 36.9141 42.75 36.748V39.235C42.75 39.8491 43.196 40.3722 43.8025 40.4692L47.9511 41.1331L40.25 51.4016L32.5489 41.1331L36.6975 40.4692ZM42.875 61.5H37.75V55.75H42.875V61.5ZM19 50.8688C19 46.4841 22.1427 42.7986 26.4725 42.1055L29.7588 41.5796L38.5112 53.25H36.5C35.8097 53.25 35.25 53.8097 35.25 54.5V61.5H26.5V54.5C26.5 53.8097 25.9404 53.25 25.25 53.25C24.5596 53.25 24 53.8097 24 54.5V61.5H19V50.8688ZM61.5 61.5H56.5V54.5C56.5 53.8097 55.9403 53.25 55.25 53.25C54.5597 53.25 54 53.8097 54 54.5V61.5H45.375V54.5C45.375 53.8097 44.8153 53.25 44.125 53.25H41.9888L50.7412 41.5796L54.0274 42.1055C58.3573 42.7988 61.5 46.4841 61.5 50.8688V61.5Z" fill="white"/>
<path d="M44.5784 27.0006C44.924 26.403 44.7195 25.6384 44.1219 25.2929C43.5243 24.9473 42.7596 25.1518 42.4141 25.7494C41.9681 26.5208 41.1389 27 40.25 27C39.3611 27 38.5319 26.5208 38.0859 25.7494C37.7405 25.152 36.9761 24.9471 36.3781 25.2929C35.7805 25.6384 35.576 26.403 35.9216 27.0006C36.8129 28.5423 38.4714 29.5 40.25 29.5C42.0286 29.5 43.6871 28.5423 44.5784 27.0006Z" fill="white"/>
<path d="M1.25 61.5C0.559625 61.5 0 62.0597 0 62.75C0 63.4403 0.559625 64 1.25 64H8.75C9.44038 64 10 63.4403 10 62.75C10 62.0597 9.44038 61.5 8.75 61.5H6.25V41.0964L24.2143 33.9106C24.6889 33.7208 25 33.2611 25 32.75C25 32.2389 24.6889 31.7791 24.2143 31.5894L6.25 24.4036V17.75C6.25 17.0597 5.69037 16.5 5 16.5C4.30963 16.5 3.75 17.0597 3.75 17.75V61.5H1.25ZM20.3843 32.75L6.25 38.4036V27.0964L20.3843 32.75Z" fill="white"/>
<path d="M40.375 19.375C41.0654 19.375 41.625 18.8154 41.625 18.125C41.625 17.4346 41.0654 16.875 40.375 16.875C39.6846 16.875 39.125 17.4346 39.125 18.125C39.125 18.8154 39.6846 19.375 40.375 19.375Z" fill="white"/>
</svg>
