<svg width="363" height="226" viewBox="0 0 363 226" fill="none" xmlns="http://www.w3.org/2000/svg">
<path d="M210.022 193.912L210.02 193.913C209.902 194.007 209.73 194.117 209.585 194.209C209.529 194.244 209.472 194.28 209.414 194.317C209.294 194.392 209.165 194.473 209.025 194.564C208.609 194.832 208.155 195.14 207.779 195.458C207.46 195.728 207.275 195.94 207.186 196.079C208.554 197.094 209.772 198.785 210.286 200.623C210.815 202.516 210.616 204.69 208.892 206.364C207.98 207.252 206.732 207.421 205.643 207.474C205.192 207.497 204.764 207.501 204.341 207.505C203.621 207.512 202.913 207.52 202.12 207.615C200.945 207.756 199.783 208.086 198.685 208.875C197.653 209.617 196.611 210.813 195.677 212.786C195.679 212.788 195.681 212.79 195.682 212.791C195.728 212.835 195.827 212.932 195.91 213.073C195.996 213.22 196.125 213.521 196.026 213.894C195.93 214.256 195.68 214.451 195.544 214.536C195.306 214.685 195.024 214.737 194.865 214.764C194.471 214.831 193.821 214.883 192.826 214.939L192.825 214.939C189.653 215.115 187.748 215.904 186.739 216.821C185.784 217.689 185.552 218.74 185.857 219.827C186.507 222.139 189.732 224.779 194.542 224.901C201.708 225.084 206.897 225.015 210.753 224.677C214.615 224.339 217.068 223.736 218.802 222.896C220.501 222.073 221.575 220.991 222.625 219.541C223.129 218.846 223.619 218.078 224.175 217.206L224.281 217.04C224.877 216.106 225.542 215.071 226.347 213.945L226.348 213.945C227.055 212.957 227.615 212.21 228.044 211.641C228.101 211.566 228.154 211.495 228.206 211.427C228.464 211.086 228.656 210.831 228.8 210.631C228.424 210.373 227.882 209.948 227.293 209.204C226.453 208.143 225.533 206.469 224.657 203.696L224.657 203.696C224.631 203.612 224.588 203.461 224.537 203.281C224.513 203.195 224.486 203.102 224.459 203.007C224.369 202.695 224.256 202.309 224.127 201.902C223.956 201.365 223.767 200.824 223.576 200.368C223.463 200.957 223.359 201.766 223.275 202.85L223.275 202.85C223.26 203.03 223.312 203.338 223.453 203.826C223.494 203.967 223.546 204.135 223.602 204.314C223.704 204.644 223.819 205.013 223.895 205.321C224.01 205.787 224.143 206.466 223.931 207.08C223.811 207.43 223.583 207.75 223.228 207.974C222.892 208.187 222.51 208.271 222.137 208.289C217.868 208.497 214.818 205.233 213.662 201.708C212.511 198.201 213.06 193.844 216.67 191.814C217.498 191.349 218.187 191.028 218.758 190.848C219.294 190.678 219.895 190.577 220.438 190.776C221.098 191.018 221.38 191.577 221.461 192.064C221.478 192.169 221.487 192.275 221.491 192.382C221.51 192.188 221.538 191.995 221.581 191.808C221.696 191.309 221.934 190.752 222.446 190.355C222.97 189.949 223.621 189.835 224.305 189.903L224.306 189.903C224.589 189.932 224.858 189.981 225.1 190.066C225.336 190.149 225.613 190.289 225.829 190.545C226.362 191.175 226.095 191.881 225.936 192.183C225.765 192.507 225.496 192.819 225.299 193.043C225.249 193.101 225.201 193.155 225.155 193.207C225.04 193.337 224.938 193.452 224.848 193.562C224.992 193.589 225.178 193.614 225.414 193.634C226.03 193.685 226.899 193.691 228.098 193.627M210.022 193.912L228.151 194.625M210.022 193.912C211.877 192.44 211.99 190.124 211.463 187.912C210.931 185.673 209.678 183.195 208.289 180.916C206.89 178.621 205.307 176.457 204.057 174.837C203.431 174.025 202.887 173.347 202.488 172.855C202.392 172.736 202.306 172.631 202.23 172.537C202.145 172.433 202.072 172.344 202.01 172.266C201.96 172.205 201.925 172.16 201.901 172.13C201.856 172.073 201.848 172.063 201.858 172.078L201.857 172.076M210.022 193.912L201.857 172.076M228.098 193.627L228.151 194.625M228.098 193.627C228.098 193.627 228.098 193.627 228.098 193.627L228.151 194.625M228.098 193.627C229.336 193.56 230.131 193.42 230.619 193.255C230.933 193.149 231.054 193.056 231.094 193.018M228.151 194.625C233.374 194.346 232.3 192.749 231.133 191.013C230.023 189.363 228.829 187.587 232.886 186.7C237.425 185.708 236.988 183.685 236.351 180.742C235.295 175.861 233.692 168.449 253.31 159.004M231.094 193.018C231.095 193.029 231.094 193.035 231.094 193.039C231.095 193.035 231.097 193.027 231.102 193.015C231.112 192.991 231.117 192.995 231.094 193.018ZM231.094 193.018C231.091 192.981 231.076 192.899 231.012 192.749C230.892 192.466 230.678 192.131 230.388 191.698C230.36 191.656 230.331 191.613 230.302 191.57C230.051 191.197 229.758 190.761 229.531 190.327C229.281 189.849 229.037 189.24 229.069 188.581C229.104 187.851 229.467 187.22 230.114 186.738C230.719 186.288 231.574 185.963 232.673 185.723L232.673 185.723C234.111 185.409 234.86 185.017 235.25 184.647C235.592 184.324 235.736 183.946 235.744 183.374C235.754 182.744 235.598 181.991 235.38 180.982L235.369 180.932C235.162 179.975 234.918 178.847 234.83 177.612C234.648 175.038 235.146 172.044 237.762 168.729C240.321 165.486 244.874 161.977 252.682 158.197M252.682 158.197C252.684 158.273 252.68 158.313 252.676 158.33C252.676 158.332 252.685 158.29 252.726 158.233C252.771 158.17 252.828 158.126 252.875 158.103L253.31 159.004M252.682 158.197C252.747 158.165 252.812 158.134 252.877 158.103L253.31 159.004M252.682 158.197C252.681 158.138 252.677 158.059 252.666 157.951C252.662 157.902 252.655 157.842 252.648 157.775C252.627 157.584 252.599 157.335 252.592 157.119C252.581 156.813 252.596 156.39 252.78 155.979M253.31 159.004C253.765 158.784 253.703 158.218 253.637 157.622C253.589 157.184 253.539 156.73 253.693 156.388M253.693 156.388L252.777 155.985C252.778 155.983 252.779 155.981 252.78 155.979M253.693 156.388C254.001 155.687 262.604 148.024 263.327 147.729M253.693 156.388L252.78 155.979M252.78 155.979C252.866 155.786 253.011 155.614 253.08 155.533C253.18 155.415 253.304 155.28 253.444 155.134C253.725 154.841 254.101 154.472 254.536 154.057C255.408 153.226 256.543 152.185 257.687 151.161C258.832 150.136 259.992 149.122 260.915 148.343C261.375 147.955 261.782 147.62 262.101 147.37C262.26 147.245 262.404 147.136 262.527 147.05C262.62 146.984 262.783 146.871 262.948 146.803M263.327 147.729L262.947 146.804C262.947 146.804 262.948 146.803 262.948 146.803M263.327 147.729L262.949 146.803C262.949 146.803 262.949 146.803 262.948 146.803M263.327 147.729L110.219 104.223C108.824 103.879 108.535 103.595 108.463 103.501C108.429 103.456 108.397 103.395 108.343 103.208C108.334 103.178 108.325 103.144 108.314 103.104C108.265 102.924 108.189 102.648 108.072 102.374L108.071 102.372C106.916 99.6854 104.124 97.8809 100.786 96.6516C97.4102 95.4083 93.253 94.6709 89.0246 94.266C80.5671 93.4562 71.6006 93.9575 67.5113 94.5746L67.5108 94.5746C66.0079 94.8023 64.6198 95.0206 63.3299 95.2234C61.083 95.5768 59.134 95.8833 57.3949 96.1109C54.6627 96.4684 52.5463 96.6163 50.7394 96.4495C47.2545 96.1279 44.7692 94.6281 41.229 90.5645L41.229 90.5644C39.3109 88.3631 37.0048 85.5769 34.6278 82.7052C31.1574 78.5121 27.5359 74.1368 24.7509 71.1334C24.7203 71.0741 24.6875 71.0184 24.6583 70.9708C24.5809 70.845 24.4772 70.694 24.359 70.529C24.1197 70.195 23.7761 69.7416 23.3529 69.1932C22.8649 68.561 22.2571 67.7847 21.5609 66.8954C21.0499 66.2427 20.4912 65.5292 19.8974 64.7673C17.082 61.1544 13.435 56.4003 10.089 51.5805C6.73242 46.7453 3.72137 41.904 2.1408 38.1063C1.34376 36.1913 0.961219 34.6575 1.00307 33.5705C1.02341 33.0423 1.14211 32.6783 1.30737 32.4293C1.46391 32.1935 1.70747 31.9911 2.11879 31.8548C2.30476 31.7934 2.39641 31.7926 2.4269 31.7956C2.44041 31.8062 2.47352 31.8363 2.53154 31.9095C2.57073 31.959 2.60306 32.0036 2.64644 32.0634C2.66763 32.0926 2.69145 32.1254 2.71999 32.1642C2.79443 32.2654 2.89682 32.4009 3.02247 32.5311C3.29608 32.8148 3.7054 33.0982 4.29432 33.1259L4.29659 33.126C5.49498 33.1798 6.46919 32.9625 7.24834 32.5517C8.02818 32.1406 8.55535 31.5656 8.90509 30.9925C9.25069 30.4261 9.42333 29.8622 9.51096 29.4474C9.55522 29.2378 9.57911 29.0601 9.59208 28.9301C9.59858 28.865 9.60239 28.8113 9.60463 28.771C9.60507 28.7632 9.60544 28.7558 9.60577 28.7489C9.60628 28.7383 9.60666 28.7289 9.60695 28.7208L9.60748 28.7035L9.60764 28.6969L9.6077 28.6941L9.60772 28.6929C9.60773 28.6923 9.60774 28.6917 8.60789 28.6748L9.60774 28.6917L9.6168 28.1566L9.17666 27.8523C7.91097 26.977 6.92275 26.5429 6.13098 26.2761C5.82185 26.1719 5.54054 26.0929 5.31456 26.0295C5.26092 26.0144 5.21039 26.0003 5.16335 25.9868C4.89842 25.9111 4.75436 25.8616 4.64937 25.8085C4.54439 25.7553 4.39611 25.6793 4.19503 25.1277C3.97285 24.5181 3.75324 23.5066 3.4621 21.7353C3.22745 20.3064 2.92585 18.9471 2.65874 17.7433C2.52125 17.1237 2.39289 16.5452 2.28752 16.0196C1.95813 14.3768 1.85464 13.2547 2.07783 12.474C2.17909 12.1198 2.34662 11.8461 2.60617 11.6185C2.87624 11.3818 3.29347 11.1541 3.951 10.9786C5.29355 10.6204 7.42665 10.5327 10.7414 10.8189L10.7416 10.8189C11.2854 10.8658 11.7828 10.9065 12.2402 10.9439C13.4217 11.0407 14.3359 11.1155 15.0925 11.2177C16.1303 11.3578 16.7306 11.5346 17.1883 11.8075C17.6361 12.0745 18.0403 12.4894 18.5708 13.2904C19.0331 13.9886 19.5428 14.9022 20.2441 16.1593C20.3639 16.374 20.4893 16.5987 20.621 16.8341L20.6211 16.8344C20.7271 17.0235 20.8495 17.2566 20.9855 17.5156C21.2803 18.0768 21.6391 18.7598 22.0327 19.3823C22.6296 20.3263 23.4162 21.328 24.4987 22.0134C25.6134 22.7192 26.9829 23.0515 28.6373 22.739C30.2129 22.4414 32.0005 21.5692 34.0684 19.9802C34.0848 19.9822 34.1034 19.9846 34.1242 19.9874C34.1501 19.9909 34.178 19.9948 34.2078 19.999C34.4749 20.0364 34.8989 20.0958 35.4184 20.065C36.6152 19.9941 38.1534 19.4693 40.234 17.7427C41.5685 16.6354 42.527 16.1888 43.1859 16.0542C43.7992 15.9288 44.1843 16.0651 44.4701 16.2599C44.7976 16.4831 45.0571 16.8275 45.307 17.2192C45.3374 17.2668 45.3719 17.3223 45.4085 17.381C45.4943 17.5186 45.591 17.6738 45.6701 17.7862C45.7316 17.8736 45.8209 17.9926 45.9344 18.1008C46.0348 18.1965 46.2596 18.3871 46.6 18.4378C46.8743 18.4787 47.1182 18.4307 47.2842 18.3854C47.4548 18.3389 47.6222 18.2721 47.7625 18.213C47.8541 18.1744 47.9414 18.1363 48.0285 18.0982C48.2376 18.0069 48.4453 17.9162 48.7061 17.8222C49.3914 17.5755 50.3413 17.3527 51.6934 17.5188C53.9705 17.8001 55.1203 18.1381 55.6834 18.4284C55.9508 18.5661 56.0259 18.6633 56.0391 18.6824C56.0395 18.683 56.04 18.6836 56.0404 18.6841C56.044 18.6884 56.0489 18.6944 56.0513 18.7387C56.0551 18.8108 56.0522 18.8427 56.047 18.9002C56.0421 18.954 56.0351 19.0303 56.0298 19.1832C56.0222 19.4041 56.0258 19.8114 56.2764 20.2094C56.5326 20.6163 56.9334 20.8414 57.34 20.9753C57.7421 21.1077 58.2505 21.1847 58.8761 21.2264L58.8775 21.2265C60.0432 21.3025 60.3606 21.5141 60.5232 21.6643C60.6351 21.7676 60.7381 21.9037 60.9134 22.1608C60.9311 22.1868 60.9495 22.2138 60.9685 22.2418C61.1263 22.4744 61.3296 22.7739 61.5994 23.0965C63.5125 25.384 66.1144 25.3784 68.3531 25.139C68.8359 25.0874 69.284 25.0279 69.717 24.9705C70.3621 24.8849 70.9735 24.8038 71.6156 24.7597C72.6404 24.6893 73.5165 24.7399 74.2642 25.0165C77.531 26.2267 80.9715 27.6481 84.5423 29.1233C85.3573 29.46 86.1791 29.7995 87.0072 30.14C91.4523 31.9675 96.0643 33.8159 100.705 35.3654C109.961 38.4566 119.466 40.4074 128.131 38.5497L128.131 38.5497C135.363 36.998 141.612 36.4476 146.927 35.9796C147.137 35.9612 147.346 35.9428 147.553 35.9245C152.944 35.4483 157.493 35.0165 160.967 33.5302C167.654 30.6719 172.186 26.8317 176.517 22.8414C177.086 22.3169 177.652 21.7905 178.217 21.2637C181.964 17.7743 185.735 14.2631 190.886 11.1234L190.886 11.1232C194.098 9.16341 196.511 7.51163 198.458 6.17937C198.822 5.93004 199.17 5.69189 199.504 5.46502C201.641 4.01189 203.138 3.06533 204.653 2.51721C207.616 1.44508 210.831 1.8286 219.368 3.96205L219.61 2.99189L219.368 3.96206C230.066 6.63515 233.283 7.71135 235.345 8.67629C235.913 8.94191 236.415 9.21198 236.977 9.5144C238.426 10.2944 240.275 11.2896 244.686 12.9785C246.53 13.6854 248.735 14.0493 250.817 14.3929C251.438 14.4953 252.047 14.596 252.633 14.7034C255.311 15.1939 257.518 15.8219 258.889 17.1567L258.89 17.1571C260.078 18.3128 261.928 19.3624 264.067 20.3369C266.227 21.3214 268.778 22.271 271.441 23.1952C273.17 23.7955 274.942 24.3838 276.694 24.9653C280.38 26.1896 283.975 27.3833 286.89 28.5937C289.372 29.6247 292.723 31.6281 296.441 34.109C300.144 36.58 304.155 39.4868 307.945 42.2904C309.581 43.5007 311.181 44.6953 312.694 45.826C314.675 47.3052 316.509 48.6751 318.088 49.8283C319.484 50.8477 320.699 51.7119 321.659 52.3453C322.139 52.6617 322.567 52.9283 322.928 53.1302C323.265 53.3182 323.624 53.4964 323.942 53.5741C326.033 54.086 327.781 55.636 329.428 57.93C330.922 60.0116 332.243 62.5739 333.631 65.2667C333.775 65.5446 333.919 65.8238 334.063 66.104C335.593 69.0603 337.225 72.115 339.226 74.5836C341.237 77.0637 343.686 79.0356 346.875 79.7108C357.226 81.9041 362.145 87.1355 361.997 92.7808C361.844 98.572 356.412 105.634 344.08 111.508C342.821 112.107 341.675 113.469 340.692 114.954C339.68 116.482 338.728 118.318 337.907 120.077C337.084 121.84 336.381 123.551 335.869 124.839C335.674 125.331 335.505 125.763 335.37 126.111C335.328 126.219 335.289 126.318 335.254 126.408C335.193 126.566 335.142 126.694 335.102 126.793C335.056 126.808 334.995 126.826 334.917 126.845C334.613 126.918 334.173 126.975 333.605 127.009C332.478 127.077 330.994 127.048 329.417 126.95C326.236 126.751 322.886 126.286 321.531 125.871C316.667 124.376 313.284 124.012 310.957 124.43C309.778 124.642 308.836 125.062 308.121 125.668C307.402 126.278 306.965 127.032 306.726 127.822C306.264 129.357 306.548 131.042 306.879 132.263C307.049 132.892 307.243 133.439 307.391 133.834C307.435 133.952 307.464 134.03 307.49 134.096C307.384 134.202 307.227 134.337 307.005 134.502C306.444 134.918 305.61 135.423 304.561 135.989C302.472 137.117 299.658 138.42 296.794 139.659C293.934 140.896 291.045 142.06 288.816 142.91C287.7 143.335 286.756 143.68 286.067 143.914C285.721 144.032 285.449 144.118 285.255 144.173C285.177 144.196 285.119 144.211 285.08 144.22C284.281 144.181 282.746 144.244 280.9 144.368C278.948 144.499 276.579 144.704 274.205 144.953C271.831 145.201 269.442 145.495 267.452 145.805C265.508 146.108 263.825 146.443 262.948 146.803M177.706 147.921C178.317 149.797 180.458 151.653 182.516 153.436C184.265 154.952 185.954 156.416 186.592 157.794L177.706 147.921ZM177.706 147.921C176.674 144.754 171.365 141.46 166.967 138.73C164.532 137.219 162.377 135.881 161.379 134.834L177.706 147.921ZM201.857 172.076C199.736 168.771 197.43 167.344 195.276 166.011C194.968 165.82 194.663 165.632 194.363 165.44C192.027 163.949 189.712 162.155 187.5 157.374L187.499 157.374C187.073 156.453 186.305 155.573 185.477 154.76C184.774 154.07 183.962 153.366 183.165 152.675C183.012 152.543 182.859 152.41 182.708 152.279C181.754 151.449 180.849 150.638 180.115 149.832C179.373 149.017 178.874 148.279 178.656 147.612C178.17 146.119 176.956 144.723 175.535 143.465C174.091 142.187 172.312 140.948 170.535 139.796C169.524 139.141 168.469 138.485 167.471 137.866C166.745 137.415 166.049 136.983 165.424 136.584C163.87 135.593 162.706 134.777 162.104 134.144L162.103 134.144M201.857 172.076L162.103 134.144M162.103 134.144C150.698 122.187 131.838 109.523 110.22 104.224L162.103 134.144ZM284.073 178.985L284.074 178.987C284.154 179.345 284.296 179.507 284.433 179.601C284.594 179.711 284.861 179.801 285.289 179.809C286.17 179.825 287.376 179.491 288.679 178.959C289.955 178.438 291.212 177.774 292.158 177.235C292.629 176.966 293.019 176.731 293.29 176.564C293.425 176.48 293.531 176.414 293.602 176.369L293.632 176.349C293.653 176.336 293.669 176.325 293.681 176.317L293.693 176.31C293.976 176.111 294.242 175.927 294.49 175.756C294.989 175.412 295.417 175.116 295.774 174.841C295.915 174.733 296.032 174.637 296.129 174.552C295.593 174.362 294.673 174.164 293.213 173.964C293.213 173.964 293.213 173.963 293.213 173.963L293.349 172.973C289.663 172.468 289.754 172.791 289.979 173.592L284.073 178.985ZM284.073 178.985C284.005 178.684 283.999 178.516 284.005 178.432C284.022 178.427 284.043 178.421 284.069 178.415C284.21 178.383 284.406 178.361 284.693 178.344C284.807 178.337 284.931 178.331 285.065 178.326C286.194 178.277 287.965 178.199 289.586 177.004L289.586 177.004C290.564 176.281 291.028 175.489 291.107 174.654C291.138 174.335 291.099 174.006 291.046 173.736L284.073 178.985ZM2.43887 31.7976C2.43879 31.7977 2.43679 31.7974 2.43311 31.7963C2.43711 31.7969 2.43895 31.7975 2.43887 31.7976ZM2.42186 31.7918C2.42044 31.7911 2.4197 31.7905 2.41968 31.7905C2.41965 31.7904 2.42037 31.7908 2.42186 31.7918ZM307.618 133.949C307.622 133.942 307.625 133.938 307.625 133.937C307.626 133.936 307.624 133.94 307.618 133.949ZM285.025 144.231C285.027 144.231 285.031 144.23 285.038 144.229C285.026 144.231 285.022 144.232 285.025 144.231ZM285.182 144.226L285.177 144.226L285.182 144.226ZM221.391 193.342C221.418 193.211 221.443 193.069 221.462 192.922C221.459 193.061 221.461 193.2 221.464 193.334C221.473 193.711 221.501 194.109 221.527 194.475C221.534 194.584 221.542 194.691 221.548 194.793C221.579 195.262 221.595 195.651 221.572 195.966C221.561 196.121 221.542 196.234 221.52 196.314C221.518 196.324 221.515 196.333 221.513 196.341C221.37 196.332 221.105 196.273 220.676 196.081C220.69 195.968 220.719 195.816 220.768 195.617C220.836 195.34 220.925 195.041 221.024 194.71C221.04 194.655 221.057 194.599 221.074 194.543C221.187 194.161 221.309 193.74 221.391 193.342ZM220.382 195.941C220.383 195.941 220.384 195.942 220.385 195.942L220.384 195.942L220.382 195.941ZM229.253 210.938C229.251 210.937 229.243 210.93 229.23 210.918C229.249 210.932 229.255 210.939 229.253 210.938ZM195.497 213.181C195.497 213.18 195.498 213.179 195.498 213.178C195.498 213.179 195.497 213.18 195.497 213.182L195.497 213.181ZM207.131 196.038C207.056 195.984 207.09 195.984 207.116 196.06L206.543 196.847C205.14 195.827 207.685 194.224 208.886 193.467C209.124 193.318 209.308 193.201 209.4 193.129C214.433 189.136 203.812 176.069 201.457 173.172L207.131 196.038ZM321.237 126.826C324.188 127.733 335.044 128.704 335.907 127.446L321.237 126.826ZM284.017 178.362C284.018 178.362 284.017 178.367 284.012 178.376C284.015 178.366 284.017 178.362 284.017 178.362ZM293.737 187.582L293.738 187.58C295.836 183.166 297.337 180.435 298.646 178.743C299.919 177.097 300.943 176.519 302.105 176.3C302.727 176.182 303.43 176.161 304.302 176.192C304.822 176.21 305.359 176.243 305.955 176.281C306.386 176.308 306.848 176.337 307.357 176.363C309.732 176.486 312.768 176.528 316.851 175.917C319.102 175.581 320.998 175.381 322.553 175.8C323.99 176.187 325.235 177.135 326.106 179.436L326.106 179.437C329.12 187.38 332.344 191.639 334.625 194.652C334.879 194.988 335.121 195.308 335.35 195.616C336.496 197.158 337.213 198.277 337.502 199.476C337.78 200.631 337.686 201.985 336.902 204.015C335.909 206.584 335.241 208.836 334.7 210.661C334.484 211.39 334.288 212.051 334.1 212.637C333.761 213.689 333.455 214.479 333.112 215.063C332.779 215.631 332.443 215.948 332.063 216.127C331.675 216.309 331.12 216.402 330.251 216.295C329.375 216.188 328.25 215.888 326.772 215.354C323.813 214.286 319.646 212.359 313.598 209.483C312.013 208.727 311.138 207.827 310.081 206.741C309.793 206.445 309.491 206.134 309.157 205.809C307.596 204.288 305.583 202.741 301.524 201.485C301.44 201.458 301.301 201.381 301.113 200.917C301.02 200.69 300.938 200.424 300.841 200.099L300.805 199.981C300.721 199.698 300.626 199.378 300.515 199.062C300.26 198.339 299.877 197.504 299.149 196.848C298.398 196.17 297.382 195.773 296.033 195.733L296.032 195.733C294.216 195.682 292.987 195.711 292.168 195.731C292.076 195.733 291.988 195.735 291.906 195.737C291.696 195.742 291.532 195.744 291.402 195.744C291.396 195.673 291.388 195.586 291.377 195.474C291.311 194.825 291.156 193.897 290.639 192.572C290.261 191.604 290.048 191.011 289.958 190.616C289.939 190.531 289.928 190.468 289.923 190.422C289.99 190.388 290.113 190.333 290.323 190.255C290.417 190.22 290.524 190.181 290.643 190.139C291.036 189.998 291.557 189.812 292.151 189.551C292.58 189.363 293.003 189.151 293.28 188.646C293.362 188.496 293.429 188.321 293.476 188.198C293.482 188.18 293.489 188.164 293.495 188.149C293.552 187.999 293.623 187.82 293.737 187.582ZM291.027 195.724C291.028 195.724 291.032 195.725 291.039 195.727C291.03 195.725 291.027 195.724 291.027 195.724ZM289.097 182.802L289.099 182.801C290.432 181.699 291.422 181.028 292.126 180.665C292.368 180.54 292.562 180.459 292.711 180.41C292.655 180.721 292.507 181.158 292.252 181.687C291.657 182.915 290.63 184.321 289.563 185.225C289.027 185.679 288.544 185.954 288.154 186.058C287.8 186.153 287.572 186.101 287.382 185.958C286.612 185.379 286.322 185.029 286.23 184.856C286.232 184.854 286.234 184.852 286.236 184.85C286.388 184.672 286.693 184.457 287.261 184.092L287.369 184.023C287.869 183.701 288.488 183.304 289.097 182.802ZM292.734 180.082C292.735 180.082 292.736 180.088 292.738 180.103C292.734 180.09 292.734 180.083 292.734 180.082Z" stroke="white" stroke-width="2"/>
<path d="M40.8373 48.1299C30.818 48.1299 22.6875 56.2511 22.6875 66.2797C22.6875 71.2886 24.7185 75.8259 28.0051 79.1119L40.8373 91.6899L53.6734 79.1092C56.9594 75.8263 58.991 71.2891 58.9871 66.2764C58.9871 56.2587 50.8621 48.1299 40.8373 48.1299ZM40.8373 75.3549C35.8246 75.3549 31.7621 71.2924 31.7621 66.2797C31.7621 61.267 35.8246 57.2051 40.8373 57.2051C45.85 57.2051 49.9125 61.267 49.9125 66.2797C49.9125 71.2924 45.85 75.3549 40.8373 75.3549Z" fill="#3B1CFF"/>
<path d="M40.3828 88.5137C44.9817 95.5916 48.1696 97.3501 60.8016 95.3199C86.2116 91.2362 106.63 93.9587 108.445 103.034C132.658 109.906 152.005 122.545 161.534 133.435C178.323 144.325 177.098 143.163 179.684 148.409" stroke="#3B1CFF" stroke-width="3"/>
</svg>
