<svg width="24" height="24" viewBox="0 0 24 24" fill="none" xmlns="http://www.w3.org/2000/svg">
<path d="M12 0.375C14.0625 0.375 16.0312 0.9375 17.8125 1.96875C19.5938 3 21 4.40625 22.0312 6.1875C23.0625 7.96875 23.625 9.9375 23.625 12C23.625 14.1094 23.0625 16.0312 22.0312 17.8125C21 19.5938 19.5938 21.0469 17.8125 22.0781C16.0312 23.1094 14.0625 23.625 12 23.625C9.89062 23.625 7.96875 23.1094 6.1875 22.0781C4.40625 21.0469 2.95312 19.5938 1.92188 17.8125C0.890625 16.0312 0.375 14.1094 0.375 12C0.375 9.9375 0.890625 7.96875 1.92188 6.1875C2.95312 4.40625 4.40625 3 6.1875 1.96875C7.96875 0.9375 9.89062 0.375 12 0.375ZM12 22.125C13.8281 22.125 15.5156 21.7031 17.0625 20.7656C18.6094 19.875 19.8281 18.6562 20.7656 17.1094C21.6562 15.5625 22.125 13.875 22.125 12C22.125 10.1719 21.6562 8.48438 20.7656 6.9375C19.8281 5.39062 18.6094 4.17188 17.0625 3.23438C15.5156 2.34375 13.8281 1.875 12 1.875C10.125 1.875 8.4375 2.34375 6.89062 3.23438C5.34375 4.17188 4.125 5.39062 3.23438 6.9375C2.29688 8.48438 1.875 10.1719 1.875 12C1.875 13.875 2.29688 15.5625 3.23438 17.1094C4.125 18.6562 5.34375 19.875 6.89062 20.7656C8.4375 21.7031 10.125 22.125 12 22.125ZM13.875 11.7656C14.4844 11.9531 15 12.2812 15.375 12.75C15.75 13.2656 15.9375 13.8281 15.9375 14.4375C15.9375 15.2344 15.6562 15.8906 15.0938 16.4531C14.5312 17.0156 13.875 17.25 13.125 17.25H12.75V19.125C12.75 19.2188 12.7031 19.3125 12.6094 19.4062C12.5156 19.5 12.4688 19.5 12.375 19.5H11.625C11.5312 19.5 11.4375 19.5 11.3438 19.4062C11.25 19.3125 11.25 19.2188 11.25 19.125V17.25H11.0156C10.0781 17.25 9.28125 16.9688 8.57812 16.4062C8.48438 16.3594 8.4375 16.2656 8.4375 16.1719C8.4375 16.0781 8.4375 15.9375 8.53125 15.8438L9.09375 15.3281C9.14062 15.2344 9.23438 15.1875 9.32812 15.1875C9.42188 15.1875 9.46875 15.2344 9.5625 15.2812C9.98438 15.6094 10.4531 15.75 11.0156 15.75H13.125C13.4531 15.75 13.7344 15.6562 14.0156 15.375C14.2969 15.1406 14.4375 14.8125 14.4375 14.4375C14.4375 14.1562 14.3438 13.9219 14.1562 13.6875C13.9688 13.4531 13.7812 13.2656 13.5 13.1719L10.125 12.2344C9.46875 12.0938 9 11.7656 8.625 11.25C8.25 10.7812 8.0625 10.2188 8.0625 9.5625C8.0625 8.8125 8.29688 8.15625 8.85938 7.59375C9.42188 7.03125 10.0781 6.75 10.875 6.75H11.25V4.875C11.25 4.78125 11.25 4.73438 11.3438 4.64062C11.4375 4.54688 11.5312 4.5 11.625 4.5H12.375C12.4688 4.5 12.5156 4.54688 12.6094 4.64062C12.7031 4.73438 12.75 4.78125 12.75 4.875V6.75H12.9844C13.875 6.75 14.6719 7.03125 15.4219 7.59375C15.5156 7.6875 15.5625 7.78125 15.5625 7.875C15.5625 7.96875 15.5156 8.0625 15.4688 8.15625L14.9062 8.67188C14.8125 8.76562 14.7656 8.8125 14.6719 8.8125C14.5781 8.8125 14.4844 8.8125 14.4375 8.71875C13.9688 8.4375 13.5 8.25 12.9844 8.25H10.875C10.5 8.25 10.1719 8.39062 9.9375 8.625C9.65625 8.90625 9.5625 9.1875 9.5625 9.5625C9.5625 9.84375 9.60938 10.125 9.79688 10.3594C9.98438 10.5938 10.2188 10.7344 10.5 10.7812L13.875 11.7656Z" fill="#2E313C"/>
</svg>
