<svg width="24" height="24" viewBox="0 0 24 24" fill="none" xmlns="http://www.w3.org/2000/svg">
<path d="M18.1875 11.6875H8.625V8.38281C8.625 6.51953 10.1016 4.97266 11.9648 4.9375C13.8281 4.9375 15.375 6.44922 15.375 8.3125V9.15625C15.375 9.64844 15.7266 10 16.2188 10C16.6758 10 17.0625 9.64844 17.0625 9.15625V8.38281C17.0625 5.57031 14.8125 3.28516 12 3.25C9.1875 3.25 6.9375 5.53516 6.9375 8.3125V11.6875H5.8125C4.86328 11.6875 4.125 12.4609 4.125 13.375V19.5625C4.125 20.5117 4.86328 21.25 5.8125 21.25H18.1875C19.1016 21.25 19.875 20.5117 19.875 19.5625V13.375C19.875 12.4609 19.1016 11.6875 18.1875 11.6875ZM18.1875 19.5625H5.8125V13.375H18.1875V19.5625ZM12 18.4375C12.5273 18.4375 12.9844 18.0156 12.9844 17.4531V15.4844C12.9844 14.957 12.5273 14.5 12 14.5C11.4375 14.5 11.0156 14.957 11.0156 15.4844V17.4531C11.0156 18.0156 11.4375 18.4375 12 18.4375Z" fill="black"/>
</svg>
