<svg width="24" height="24" viewBox="0 0 24 24" fill="none" xmlns="http://www.w3.org/2000/svg">
<path d="M20.2209 5.21875C20.6428 5.67578 20.8889 6.20312 20.8889 6.83594C20.8889 7.46875 20.6428 7.99609 20.2209 8.41797L7.84592 20.793L3.73264 21.25C3.45139 21.25 3.24045 21.1797 3.09983 20.9688C2.92405 20.793 2.85373 20.582 2.88889 20.3008L3.34592 16.293L15.7209 3.91797C16.1428 3.49609 16.6701 3.25 17.303 3.25C17.9358 3.25 18.4631 3.49609 18.9201 3.91797L20.2209 5.21875ZM7.31858 19.7383L16.5998 10.457L13.6819 7.53906L4.40061 16.8203L4.04905 20.0898L7.31858 19.7383ZM19.4475 7.60938C19.6584 7.39844 19.7639 7.15234 19.7639 6.83594C19.7639 6.51953 19.6584 6.23828 19.4475 6.02734L18.1115 4.69141C17.9006 4.48047 17.6194 4.375 17.303 4.375C16.9865 4.375 16.7405 4.48047 16.5295 4.69141L14.4905 6.73047L17.4084 9.64844L19.4475 7.60938Z" fill="black"/>
</svg>
