<svg width="44" height="44" viewBox="0 0 44 44" fill="none" xmlns="http://www.w3.org/2000/svg">
<rect width="44" height="44" rx="11" fill="#3B1CFF"/>
<path d="M32.8388 31.1229L27.637 25.9313C27.5081 25.8454 27.3791 25.7596 27.2501 25.7596H26.6913C28.0239 24.215 28.8837 22.1555 28.8837 19.9244C28.8837 15.0332 24.8427 11 19.9419 11C14.998 11 11 15.0332 11 19.9244C11 24.8586 14.998 28.8489 19.9419 28.8489C22.1773 28.8489 24.1979 28.0336 25.7885 26.7036V27.2613C25.7885 27.3901 25.8315 27.5188 25.9174 27.6475L31.1192 32.8391C31.3341 33.0536 31.6781 33.0536 31.85 32.8391L32.8388 31.8523C33.0537 31.6806 33.0537 31.3374 32.8388 31.1229ZM19.9419 26.7894C16.1158 26.7894 13.0635 23.7431 13.0635 19.9244C13.0635 16.1487 16.1158 13.0595 19.9419 13.0595C23.725 13.0595 26.8202 16.1487 26.8202 19.9244C26.8202 23.7431 23.725 26.7894 19.9419 26.7894Z" fill="white"/>
</svg>
