<svg width="62" height="25" viewBox="0 0 62 25" fill="none" xmlns="http://www.w3.org/2000/svg">
<path d="M42.27 15.516V18H39.444V15.516H33.45V12.978L38.634 5.256H42.252V13.068H44.016V15.516H42.27ZM39.462 8.352H39.408L36.384 13.068H39.462V8.352ZM49.1547 16.416C49.1547 16.92 48.9747 17.34 48.6147 17.676C48.2667 18.012 47.8467 18.18 47.3547 18.18C47.1027 18.18 46.8627 18.132 46.6347 18.036C46.4187 17.952 46.2267 17.832 46.0587 17.676C45.8907 17.52 45.7587 17.34 45.6627 17.136C45.5667 16.92 45.5187 16.686 45.5187 16.434C45.5187 16.194 45.5667 15.966 45.6627 15.75C45.7587 15.534 45.8907 15.348 46.0587 15.192C46.2267 15.024 46.4187 14.892 46.6347 14.796C46.8627 14.7 47.1027 14.652 47.3547 14.652C47.8467 14.652 48.2667 14.82 48.6147 15.156C48.9747 15.492 49.1547 15.912 49.1547 16.416ZM60.5272 14.292C60.5272 14.988 60.3832 15.594 60.0952 16.11C59.8192 16.614 59.4532 17.034 58.9972 17.37C58.5412 17.694 58.0252 17.934 57.4492 18.09C56.8852 18.258 56.3092 18.342 55.7212 18.342C55.1452 18.342 54.5812 18.276 54.0292 18.144C53.4892 18.012 52.9912 17.814 52.5352 17.55C52.0912 17.274 51.7012 16.926 51.3652 16.506C51.0292 16.074 50.7772 15.558 50.6092 14.958L53.4172 14.22C53.5372 14.64 53.7832 15.012 54.1552 15.336C54.5272 15.648 55.0012 15.804 55.5772 15.804C55.7932 15.804 56.0092 15.774 56.2252 15.714C56.4532 15.654 56.6512 15.564 56.8192 15.444C56.9992 15.312 57.1432 15.144 57.2512 14.94C57.3712 14.736 57.4312 14.484 57.4312 14.184C57.4312 13.86 57.3532 13.59 57.1972 13.374C57.0532 13.158 56.8552 12.99 56.6032 12.87C56.3632 12.738 56.0872 12.648 55.7752 12.6C55.4632 12.54 55.1512 12.51 54.8392 12.51H54.0292V10.296H54.9112C55.1992 10.296 55.4752 10.278 55.7392 10.242C56.0032 10.194 56.2372 10.116 56.4412 10.008C56.6572 9.888 56.8252 9.732 56.9452 9.54C57.0772 9.348 57.1432 9.096 57.1432 8.784C57.1432 8.328 56.9812 7.98 56.6572 7.74C56.3332 7.5 55.9612 7.38 55.5412 7.38C55.1092 7.38 54.7312 7.512 54.4072 7.776C54.0952 8.028 53.8912 8.37 53.7952 8.802L50.9872 8.154C51.1432 7.614 51.3772 7.146 51.6892 6.75C52.0012 6.342 52.3672 6.006 52.7872 5.742C53.2192 5.466 53.6872 5.262 54.1912 5.13C54.6952 4.986 55.2112 4.914 55.7392 4.914C56.3032 4.914 56.8492 4.986 57.3772 5.13C57.9172 5.274 58.3972 5.496 58.8172 5.796C59.2372 6.096 59.5732 6.474 59.8252 6.93C60.0892 7.374 60.2212 7.902 60.2212 8.514C60.2212 9.222 60.0172 9.822 59.6092 10.314C59.2132 10.794 58.7032 11.118 58.0792 11.286V11.34C58.4392 11.424 58.7692 11.562 59.0692 11.754C59.3692 11.934 59.6272 12.156 59.8432 12.42C60.0592 12.672 60.2272 12.96 60.3472 13.284C60.4672 13.596 60.5272 13.932 60.5272 14.292Z" fill="white"/>
<path d="M12.1406 0.84375C12.3281 0.46875 12.5625 0.234375 12.9375 0.09375C13.3125 0 13.6406 0 14.0156 0.09375C14.3906 0.234375 14.6719 0.46875 14.8594 0.84375L17.9062 7.03125L24.75 8.01562C25.125 8.10938 25.4531 8.29688 25.6875 8.57812C25.9219 8.90625 26.0156 9.23438 26.0156 9.60938C26.0156 9.98438 25.875 10.3125 25.5938 10.5938L20.625 15.4219L21.7969 22.2656C21.8438 22.6406 21.75 23.0156 21.5625 23.3438C21.375 23.6719 21.0938 23.8594 20.7188 23.9531C20.3438 24.0469 19.9688 24 19.6406 23.8125L13.5 20.625L7.35938 23.8125C6.98438 24 6.65625 24.0469 6.28125 23.9531C5.90625 23.8594 5.57812 23.6719 5.39062 23.3438C5.20312 23.0156 5.10938 22.6406 5.20312 22.2656L6.375 15.4219L1.40625 10.5938C1.125 10.3125 0.9375 9.98438 0.9375 9.60938C0.9375 9.23438 1.03125 8.90625 1.26562 8.57812C1.5 8.29688 1.82812 8.10938 2.25 8.01562L9.09375 7.03125L12.1406 0.84375Z" fill="white"/>
</svg>
