<svg width="16" height="16" viewBox="0 0 16 16" fill="none" xmlns="http://www.w3.org/2000/svg">
<path d="M15.9171 0.745647L13.399 3.26377L12.7361 2.6008L15.2542 0.0826779C14.822 0.00633413 13.9211 -0.0846346 12.7037 0.153209C11.7214 0.345147 10.7254 0.712553 9.74345 1.24521C8.52864 1.90418 7.33108 2.81993 6.18399 3.96699C5.31558 4.8354 4.56577 5.7019 3.92155 6.53146H9.46835V12.0782C10.2979 11.4341 11.1644 10.6842 12.0328 9.81583C13.1799 8.66877 14.0956 7.47121 14.7546 6.2564C15.2873 5.2744 15.6547 4.27843 15.8466 3.29612C16.0845 2.07871 15.9935 1.1778 15.9171 0.745647Z" fill="white"/>
<path d="M3.2261 7.46917C2.85897 7.98679 2.53441 8.48304 2.24976 8.94804H7.05251V13.7508C7.51751 13.4661 8.01376 13.1415 8.53135 12.7744V7.46917H3.2261Z" fill="white"/>
<path d="M1.70278 9.88555C1.57728 10.1123 1.46275 10.3278 1.35884 10.5304C0.447563 12.3065 0.126906 13.4895 0.113688 13.539L0 13.9651L1.52625 14.4737L2.03487 16L2.46103 15.8863C2.5105 15.8731 3.69347 15.5525 5.46962 14.6412C5.67222 14.5372 5.88769 14.4227 6.11447 14.2972V9.88555H1.70278Z" fill="white"/>
</svg>
