<svg width="24" height="24" viewBox="0 0 24 24" fill="none" xmlns="http://www.w3.org/2000/svg">
<path d="M15.1289 13.9375C14.1094 13.9375 13.6523 14.5 12 14.5C10.3125 14.5 9.85547 13.9375 8.83594 13.9375C6.23438 13.9375 4.125 16.082 4.125 18.6836V19.5625C4.125 20.5117 4.86328 21.25 5.8125 21.25H18.1875C19.1016 21.25 19.875 20.5117 19.875 19.5625V18.6836C19.875 16.082 17.7305 13.9375 15.1289 13.9375ZM18.1875 19.5625H5.8125V18.6836C5.8125 16.9961 7.14844 15.625 8.83594 15.625C9.36328 15.625 10.1719 16.1875 12 16.1875C13.793 16.1875 14.6016 15.625 15.1289 15.625C16.8164 15.625 18.1875 16.9961 18.1875 18.6836V19.5625ZM12 13.375C14.7773 13.375 17.0625 11.125 17.0625 8.3125C17.0625 5.53516 14.7773 3.25 12 3.25C9.1875 3.25 6.9375 5.53516 6.9375 8.3125C6.9375 11.125 9.1875 13.375 12 13.375ZM12 4.9375C13.8281 4.9375 15.375 6.48438 15.375 8.3125C15.375 10.1758 13.8281 11.6875 12 11.6875C10.1367 11.6875 8.625 10.1758 8.625 8.3125C8.625 6.48438 10.1367 4.9375 12 4.9375Z" fill="black"/>
</svg>
