<svg width="64" height="60" viewBox="0 0 64 60" fill="none" xmlns="http://www.w3.org/2000/svg">
<path d="M17.2963 57.4476H16.3248C15.7711 57.4476 15.3221 57.8911 15.3221 58.4381C15.3221 58.9851 15.7711 59.4286 16.3248 59.4286H17.2963C17.85 59.4286 18.2989 58.9851 18.2989 58.4381C18.2989 57.8911 17.85 57.4476 17.2963 57.4476Z" fill="#3B1CFF"/>
<path d="M62.9972 48.837H57.2752C56.7215 48.837 56.2726 49.2805 56.2726 49.8275V53.4853H52.1368V50.2662H53.4052C53.9589 50.2662 54.4078 49.8228 54.4078 49.2758V42.073H57.2752C57.9632 42.073 58.4456 41.4034 58.2241 40.7629L57.3026 38.0937C56.6945 35.9883 54.4281 34.5207 51.7783 34.5207H47.6876V30.9522C47.6876 30.4052 47.2387 29.9617 46.685 29.9617C46.1313 29.9617 45.6823 30.4052 45.6823 30.9522V34.5207H41.8074C39.7074 34.5207 37.79 35.4578 36.8035 36.9665C36.5031 37.426 36.6366 38.0391 37.1017 38.336C37.5667 38.6329 38.1874 38.5009 38.488 38.0414C39.0997 37.1061 40.4026 36.5016 41.8074 36.5016H51.7784C53.5147 36.5016 55.029 37.4063 55.3789 38.6527C55.3893 38.6901 55.347 38.5655 55.8741 40.0921H36.3943C35.8406 40.0921 35.3917 40.5355 35.3917 41.0825C35.3917 41.6295 35.8406 42.073 36.3943 42.073H38.9621V49.2758C38.9621 49.8228 39.411 50.2662 39.9647 50.2662H41.2332V53.4853H31.2695V45.1791C31.2695 44.6321 30.8206 44.1886 30.2669 44.1886C29.7132 44.1886 29.2643 44.6321 29.2643 45.1791V53.4853H25.5671V45.1791C25.5671 44.6321 25.1181 44.1886 24.5644 44.1886H19.3212C18.7675 44.1886 18.3186 44.6321 18.3186 45.1791V53.4853H14.6008V42.073H33.7028C34.3893 42.073 34.8733 41.4049 34.6518 40.7629L33.7302 38.0937C33.1479 36.0783 31.0463 34.6485 28.5437 34.5296V31.5273H31.9588C32.6468 31.5273 33.1292 30.8577 32.9077 30.2171L31.9863 27.5478C31.4041 25.5326 29.3025 24.1027 26.7998 23.9839V21.4188H30.0789C30.803 21.4188 31.2889 20.6817 30.9957 20.0273L30.0932 18.0136C29.4927 16.0221 27.4038 14.6125 24.92 14.4946V13.2475C24.92 12.7005 24.4711 12.257 23.9174 12.257C23.3637 12.257 22.9147 12.7005 22.9147 13.2475V14.3617H20.9505V10.8951H28.8256C29.5498 10.8951 30.0357 10.158 29.7424 9.50364L28.8399 7.4899C28.2125 5.40868 25.9596 3.96186 23.3288 3.96186H22.9352V0.990465C22.9352 0.443481 22.4862 0 21.9325 0C21.3788 0 20.9299 0.443481 20.9299 0.990465V3.96186H20.4525C17.7657 3.96186 15.501 5.44744 14.9144 7.58387L14.1109 9.53075C13.8424 10.1815 14.3277 10.8952 15.0393 10.8952H18.9451V14.4903C16.3706 14.5806 14.2291 16.039 13.6611 18.1077L12.8576 20.0546C12.5893 20.7053 13.0743 21.4191 13.786 21.4191H24.7944V23.9752H17.3192C14.6141 23.9752 12.337 25.4811 11.7692 27.6408L10.9488 30.2424C10.7478 30.8796 11.2307 31.5275 11.9061 31.5275H15.3212V34.5254C12.7285 34.6164 10.5751 36.0948 10.0254 38.1865L9.20502 40.7881C9.00399 41.4254 9.48689 42.0732 10.1623 42.0732H12.5955V53.4855H7.72727V53.3617C7.72727 52.8147 7.27834 52.3712 6.72464 52.3712C6.17094 52.3712 5.72201 52.8147 5.72201 53.3617V57.4474H2.00526V50.8182H6.72464C7.27834 50.8182 7.72727 50.3747 7.72727 49.8277C7.72727 49.2807 7.27834 48.8372 6.72464 48.8372H1.00263C0.448928 48.8372 0 49.2807 0 49.8277V58.4378C0 58.9848 0.448928 59.4283 1.00263 59.4283H13.5982C14.1519 59.4283 14.6008 58.9848 14.6008 58.4378C14.6008 57.8908 14.1519 57.4474 13.5982 57.4474H7.72727V55.4664H56.2726V57.4474H20.1779C19.6242 57.4474 19.1753 57.8908 19.1753 58.4378C19.1753 58.9848 19.6242 59.4283 20.1779 59.4283H62.9974C63.5511 59.4283 64 58.9848 64 58.4378V49.8277C63.9999 49.2805 63.5509 48.837 62.9972 48.837ZM16.8398 8.14014C17.1648 6.86702 18.6841 5.94292 20.4525 5.94292H23.3288C25.0651 5.94292 26.5793 6.84758 26.9293 8.09396C26.9598 8.20242 26.9774 8.22755 27.2852 8.91431H16.5309C16.8228 8.20724 16.817 8.2299 16.8398 8.14014ZM15.5865 18.6638C15.9115 17.3907 17.4308 16.4666 19.1992 16.4666H24.5821C26.3184 16.4666 27.8326 17.3713 28.1825 18.6177C28.2131 18.7261 28.2307 18.7512 28.5385 19.438H15.2776C15.5695 18.7309 15.5637 18.7536 15.5865 18.6638ZM23.7707 31.5274C24.3244 31.5274 24.7734 31.0839 24.7734 30.5369C24.7734 29.9899 24.3244 29.5465 23.7707 29.5465H13.2688L13.6917 28.2057C14.1823 26.6548 15.7625 25.956 17.3194 25.956H26.4622C28.1985 25.956 29.7127 26.8607 30.0626 28.1071C30.0741 28.148 30.04 28.0468 30.5578 29.5465H26.9877C25.9359 29.5465 25.595 30.9533 26.5387 31.4216V34.397H17.3267V31.5274H23.7707ZM11.9477 38.7513C12.4384 37.2004 14.0184 36.5016 15.5754 36.5016H28.206C29.9423 36.5016 31.4565 37.4063 31.8064 38.6527C31.818 38.6935 31.7775 38.574 32.3015 40.0921H11.5249L11.9477 38.7513ZM43.2384 50.2662H45.4317C45.9854 50.2662 46.4343 49.8228 46.4343 49.2758C46.4343 48.7288 45.9854 48.2853 45.4317 48.2853H40.9673V42.073H52.4026V48.2853H48.3142C47.7605 48.2853 47.3116 48.7288 47.3116 49.2758C47.3116 49.8228 47.7605 50.2662 48.3142 50.2662H50.1315V53.4853H43.2384V50.2662ZM20.3238 46.1696H23.5618V53.4853H20.3238V46.1696ZM61.9946 57.4471H58.2779V50.8179H61.9946V57.4471Z" fill="#3B1CFF"/>
</svg>
