<svg width="110" height="69" viewBox="0 0 110 69" fill="none" xmlns="http://www.w3.org/2000/svg">
<path d="M56.2099 30.4139L54.8793 29.2503L53.561 30.4277L45.9331 37.2407L40.2808 34.4106L48.967 25.6612H61.0388L68.9121 33.591L63.7119 36.9744L56.2099 30.4139ZM98.6978 63.5972L99.2845 64.1881H100.117H108V67H2V64.1881H9.88281H10.7155L11.3022 63.5972L32.3141 42.4319L46.3441 49.4603L47.5588 50.0688L48.5721 49.1638L54.9495 43.468L61.6627 49.3388L62.8016 50.3348L64.0698 49.5098L76.6129 41.3508L98.6978 63.5972ZM53.5792 2H56.0244V16.7735H53.5792V2ZM64.1973 16.7744V9.03897H66.6426V16.7744H64.1973ZM43.3574 16.7744V9.03897H45.8027V16.7744H43.3574Z" stroke="white" stroke-width="4"/>
</svg>
