<svg width="16" height="13" viewBox="0 0 16 13" fill="none" xmlns="http://www.w3.org/2000/svg">
<path d="M11.2718 6.3106C10.3927 5.43447 9.22547 4.9555 7.98353 4.95866C5.43665 4.96747 3.36459 7.06714 3.36459 9.63918V10.2943C3.36459 11.2208 3.83952 12.0573 4.63509 12.5321C5.43059 13.0069 6.3924 13.0278 7.20781 12.588C7.70375 12.3205 8.29597 12.3205 8.79194 12.588C9.18257 12.7988 9.60663 12.9037 10.0301 12.9037C10.4905 12.9036 10.9503 12.7795 11.3647 12.5321C12.1602 12.0573 12.6352 11.2207 12.6352 10.2943V9.59396C12.6351 8.3528 12.151 7.18676 11.2718 6.3106Z" fill="white"/>
<path d="M3.05467 3.797L2.80379 3.61472C2.01585 3.04225 0.909101 3.21756 0.336694 4.00547C-0.235745 4.79338 -0.0604943 5.90014 0.727445 6.47261L0.97832 6.65489C1.29113 6.88217 1.6542 6.99158 2.01417 6.99158C2.56082 6.99158 3.10029 6.7392 3.44548 6.26414C4.01786 5.4762 3.84258 4.36944 3.05467 3.797Z" fill="white"/>
<path d="M15.6631 4.0474C15.0907 3.25949 13.9839 3.08415 13.196 3.65665L12.9451 3.83893C12.1572 4.41137 11.9819 5.51813 12.5543 6.30607C12.8996 6.7812 13.4389 7.03351 13.9856 7.03351C14.3455 7.03351 14.7087 6.92408 15.0215 6.69683L15.2724 6.51454C16.0603 5.94207 16.2356 4.83531 15.6631 4.0474Z" fill="white"/>
<path d="M7.3945 2.00626L7.13947 1.22135C6.99372 0.772666 6.6819 0.407603 6.2615 0.193415C5.84115 -0.0208042 5.3625 -0.0584605 4.91384 0.0873522C4.46515 0.233134 4.10006 0.544916 3.88584 0.965292C3.67162 1.38567 3.63396 1.86429 3.77977 2.31298L4.03481 3.09789C4.27709 3.84348 4.97121 4.31852 5.7159 4.31852C5.89631 4.31852 6.07984 4.29061 6.26047 4.23192C6.70912 4.08614 7.07425 3.77433 7.28847 3.35395C7.50262 2.93358 7.54028 2.45495 7.3945 2.00626Z" fill="white"/>
<path d="M11.0866 0.10333C10.1603 -0.197639 9.1619 0.311112 8.86097 1.23736L8.60594 2.02224C8.46015 2.47093 8.49781 2.94955 8.71197 3.36993C8.92615 3.79031 9.29125 4.10212 9.7399 4.2479C9.92062 4.30659 10.104 4.33449 10.2845 4.33449C11.0291 4.33449 11.7233 3.85946 11.9656 3.11387L12.2206 2.32896C12.5216 1.40271 12.0128 0.404299 11.0866 0.10333Z" fill="white"/>
</svg>
